<svg xmlns="http://www.w3.org/2000/svg" xmlns:xlink="http://www.w3.org/1999/xlink" version="1.1" viewBox="47 35 74 96" style="enable-background:new 0 0 161.4920044 162.7319946;" xml:space="preserve">
    <g fill="#c7d2fe">
        <rect x="84.3559875" y="35.6519356" width="11.029789" height="11.0297012"/>
        <rect x="71.9475555" y="47.7156868" width="11.029789" height="11.0297012"/>
        <rect x="109.1729507" y="47.7156868" width="11.0297012" height="11.0297012"/>
        <rect x="47.1306801" y="59.779438" width="11.0297012" height="11.029789"/>
        <rect x="59.5391159" y="59.779438" width="11.0297012" height="11.029789"/>
        <rect x="84.3559875" y="59.779438" width="11.029789" height="11.029789"/>
        <rect x="96.7645111" y="59.779438" width="11.0297012" height="11.029789"/>
        <rect x="71.9475555" y="71.843277" width="11.029789" height="11.0297012"/>
        <rect x="84.3559875" y="71.843277" width="11.029789" height="11.0297012"/>
        <rect x="47.1306801" y="83.9070282" width="11.0297012" height="11.0297012"/>
        <rect x="59.5391159" y="83.9070282" width="11.0297012" height="11.0297012"/>
        <rect x="71.9475555" y="83.9070282" width="11.029789" height="11.0297012"/>
        <rect x="84.3559875" y="83.9070282" width="11.029789" height="11.0297012"/>
        <rect x="109.1729507" y="83.9070282" width="11.0297012" height="11.0297012"/>
        <rect x="59.5391159" y="95.9707794" width="11.0297012" height="11.029789"/>
        <rect x="71.9475555" y="95.9707794" width="11.029789" height="11.029789"/>
        <rect x="96.7645111" y="95.9707794" width="11.0297012" height="11.029789"/>
        <rect x="109.1729507" y="95.9707794" width="11.0297012" height="11.029789"/>
        <rect x="47.1306801" y="108.0346222" width="11.0297012" height="11.0297012"/>
        <rect x="59.5391159" y="108.0346222" width="11.0297012" height="11.0297012"/>
        <rect x="71.9475555" y="108.0346222" width="11.029789" height="11.0297012"/>
        <rect x="84.3559875" y="108.0346222" width="11.029789" height="11.0297012"/>
        <rect x="96.7645111" y="108.0346222" width="11.0297012" height="11.0297012"/>
        <rect x="109.1729507" y="108.0346222" width="11.0297012" height="11.0297012"/>
        <rect x="47.1306801" y="120.0983734" width="11.0297012" height="11.0297012"/>
        <rect x="59.5391159" y="120.0983734" width="11.0297012" height="11.0297012"/>
        <rect x="71.9475555" y="120.0983734" width="11.029789" height="11.0297012"/>
        <rect x="84.3559875" y="120.0983734" width="11.029789" height="11.0297012"/>
        <rect x="96.7645111" y="120.0983734" width="11.0297012" height="11.0297012"/>
        <rect x="109.1729507" y="120.0983734" width="11.0297012" height="11.0297012"/>
    </g>
</svg>
